<svg xmlns="http://www.w3.org/2000/svg" viewBox="0 0 418.79 414.48"><defs><style>.cls-1{fill:#fff;}</style></defs><g id="Layer_2" data-name="Layer 2"><g id="Layer_1-2" data-name="Layer 1"><path class="cls-1" d="M207.15,414.48A207.19,207.19,0,0,1,0,207.15,207.25,207.25,0,0,1,353.74,60.64a207.18,207.18,0,0,1,28.31,257.85L418.79,413l-95.56-34A205.83,205.83,0,0,1,207.15,414.48Zm0-399.2c-105.8,0-191.87,86.07-191.87,191.87s86.07,192,191.87,192A190.68,190.68,0,0,0,317.7,364.31l3.23-2.29,71.53,25.43-27.52-70.81,2.21-3.31A189.89,189.89,0,0,0,399.2,207.15C399.2,101.35,313.05,15.28,207.15,15.28Z"/></g></g></svg>