<?xml version="1.0" encoding="utf-8"?>
<!-- Generator: Adobe Illustrator 24.2.3, SVG Export Plug-In . SVG Version: 6.00 Build 0)  -->
<svg version="1.1" id="Layer_1" xmlns="http://www.w3.org/2000/svg" xmlns:xlink="http://www.w3.org/1999/xlink" x="0px" y="0px"
	 viewBox="0 0 418.8 414.5" style="enable-background:new 0 0 418.8 414.5;" xml:space="preserve">
<style type="text/css">
	.st0{stroke:#000000;stroke-width:42;stroke-miterlimit:10;}
</style>
<g id="Layer_2_1_">
	<g id="Layer_1-2">
		<path class="st0" d="M200.6,380.4c-96.5,0.1-174.7-78.1-174.8-174.6c0,0,0-0.1,0-0.1C25.9,109.3,104,31,200.5,31
			c46.3,0,90.7,18.3,123.5,51c58,57.9,68,148.2,24,217.4l31,79.6l-80.6-28.6C269.6,370,235.5,380.5,200.6,380.4z M201.8,32.7
			c-96.3,0.1-174.6,78.5-174.5,174.8S105.7,382.3,202,382.2c36,0.1,71.2-11,100.6-31.8l2.9-2.1l65.1,23.1L345.6,307l2-3
			c19.1-28.6,29.2-62.3,29.1-96.7C376.7,110.9,298.2,32.6,201.8,32.7z"/>
	</g>
</g>
</svg>
