<?xml version="1.0" encoding="utf-8"?>
<!-- Generator: Adobe Illustrator 24.2.3, SVG Export Plug-In . SVG Version: 6.00 Build 0)  -->
<svg version="1.1" id="Layer_1" xmlns="http://www.w3.org/2000/svg" xmlns:xlink="http://www.w3.org/1999/xlink" x="0px" y="0px"
	 viewBox="0 0 24 24" style="enable-background:new 0 0 24 24;" xml:space="preserve">
<style type="text/css">
	.st0{fill:none;stroke:#000000;stroke-width:2;stroke-linecap:round;stroke-linejoin:round;}
</style>
<path class="st0" d="M12.2,3.2h-7c-1.7,0-3,1.3-3,3v12.5c0,1.7,1.3,3,3,3h12.5c1.7,0,3-1.3,3-3v-7"/>
<path class="st0" d="M10,17.2H6.8V14L18.6,2.2c0.6-0.6,1.5-0.6,2,0c0,0,0,0,0,0l1.2,1.2c0.6,0.6,0.6,1.5,0,2c0,0,0,0,0,0L10,17.2z"
	/>
<line class="st0" x1="16.8" y1="3.9" x2="20.1" y2="7.2"/>
</svg>
