<?xml version="1.0" encoding="utf-8"?>
<!-- Generator: Adobe Illustrator 24.2.3, SVG Export Plug-In . SVG Version: 6.00 Build 0)  -->
<svg version="1.1" id="Layer_1" xmlns="http://www.w3.org/2000/svg" xmlns:xlink="http://www.w3.org/1999/xlink" x="0px" y="0px"
	 viewBox="0 0 24 24" style="enable-background:new 0 0 24 24;" xml:space="preserve">
<path d="M16.8,3.9c2.7,0.2,4.8,2.5,4.7,5.2c0,3.1-2.7,5-5.2,7.2c-2.5,2.2-3.9,3.5-4.3,3.8c-0.5-0.3-2.1-1.8-4.3-3.8
	c-2.6-2.3-5.2-4.2-5.2-7.2c-0.1-2.7,2-5.1,4.7-5.2c1.5,0,2.9,0.7,3.7,1.9c0.8,1.2,1,1.8,1.1,1.8s0.3-0.6,1.1-1.8
	C13.9,4.6,15.3,3.8,16.8,3.9 M16.8,1.9C15,1.8,13.2,2.6,12,4c-1.2-1.4-3-2.2-4.8-2.1C3.4,2.1,0.4,5.3,0.5,9.1c0,3.6,2.5,5.8,5,8
	c0.3,0.2,0.6,0.5,0.9,0.7l1,0.9c1.1,1.1,2.3,2.1,3.5,3c0.7,0.4,1.5,0.4,2.2,0c1.3-1,2.5-2,3.6-3.1l0.9-0.8c0.3-0.3,0.6-0.5,0.9-0.8
	c2.3-2,5-4.3,5-7.9C23.6,5.3,20.6,2.1,16.8,1.9z"/>
</svg>
