<?xml version="1.0" encoding="utf-8"?>
<!-- Generator: Adobe Illustrator 24.2.3, SVG Export Plug-In . SVG Version: 6.00 Build 0)  -->
<svg version="1.1" id="Layer_1" xmlns="http://www.w3.org/2000/svg" xmlns:xlink="http://www.w3.org/1999/xlink" x="0px" y="0px"
	 viewBox="0 0 44 44" style="enable-background:new 0 0 44 44;" xml:space="preserve">
<style type="text/css">
	.st0{fill:#C7C7C7;}
</style>
<path class="st0" d="M38.5,20.7h-15V5.5C23.5,4.8,22.9,4,22,4c-0.9,0-1.5,0.7-1.5,1.5v15h-15C4.8,20.5,4,21.1,4,22
	c0,0.9,0.6,1.5,1.5,1.5h15v15c0,0.7,0.6,1.5,1.5,1.5c0.9,0,1.5-0.5,1.5-1.5v-15h15c0.7,0,1.5-0.5,1.5-1.5
	C40,21.1,39.2,20.7,38.5,20.7z"/>
</svg>
