<?xml version="1.0" encoding="utf-8"?>
<!-- Generator: Adobe Illustrator 24.2.3, SVG Export Plug-In . SVG Version: 6.00 Build 0)  -->
<svg version="1.1" id="Layer_1" xmlns="http://www.w3.org/2000/svg" xmlns:xlink="http://www.w3.org/1999/xlink" x="0px" y="0px"
	 viewBox="0 0 24 24" style="enable-background:new 0 0 24 24;" xml:space="preserve">
<style type="text/css">
	.st0{fill:none;stroke:#000000;stroke-width:2;stroke-linejoin:round;}
	.st1{fill:none;stroke:#000000;stroke-width:2;stroke-linecap:round;stroke-linejoin:round;}
	.st2{fill-rule:evenodd;clip-rule:evenodd;}
</style>
<line class="st0" x1="2" y1="7" x2="22" y2="7"/>
<line class="st1" x1="13.5" y1="2" x2="16.4" y2="7"/>
<line class="st1" x1="7.2" y1="2.1" x2="10" y2="7"/>
<path class="st1" d="M2,12v3.4c0,2.8,0.7,4,1.6,4.9C4.5,21.3,5.7,22,8.6,22h6.9c2.8,0,4-0.7,4.9-1.6c0.9-0.9,1.6-2.1,1.6-4.9V8.6
	c0-2.8-0.7-4-1.6-4.9C19.5,2.7,18.3,2,15.4,2H8.6c-2.8,0-4,0.7-4.9,1.6C2.7,4.5,2,5.7,2,8.6V12z"/>
<path class="st2" d="M9.8,17.7c-0.3-0.2-0.5-0.5-0.5-0.8v-5.2c0-0.5,0.4-0.9,0.9-0.9c0.2,0,0.3,0,0.5,0.1l4.5,2.6
	c0.4,0.3,0.6,0.8,0.3,1.2c-0.1,0.1-0.2,0.3-0.3,0.3l-4.5,2.6C10.4,17.8,10,17.8,9.8,17.7L9.8,17.7z"/>
</svg>
