<?xml version="1.0" encoding="utf-8"?>
<!-- Generator: Adobe Illustrator 24.2.3, SVG Export Plug-In . SVG Version: 6.00 Build 0)  -->
<svg version="1.1" id="Layer_1" xmlns="http://www.w3.org/2000/svg" xmlns:xlink="http://www.w3.org/1999/xlink" x="0px" y="0px"
	 viewBox="0 0 24 24" style="enable-background:new 0 0 24 24;" xml:space="preserve">
<style type="text/css">
	.st0{fill:none;stroke:#fff;stroke-width:2;stroke-linecap:round;stroke-linejoin:round;}
	.st1{fill:none;stroke:#fff;stroke-width:2;stroke-linejoin:round;}
</style>
<circle class="st0" cx="12" cy="12" r="8.6"/>
<path class="st1" d="M14.2,3.7c-0.3-0.1-0.6-0.3-0.8-0.7l-0.5-1h-1.9l-0.5,1c-0.2,0.3-0.4,0.6-0.8,0.7 M9.8,20.3
	c0.3,0.1,0.6,0.3,0.8,0.7l0.5,1h1.9l0.5-1c0.2-0.3,0.4-0.6,0.8-0.7 M3.7,9.8c-0.1,0.3-0.3,0.6-0.7,0.8l-1,0.5v1.9l1,0.5
	c0.3,0.2,0.6,0.4,0.7,0.8 M20.3,14.2c0.1-0.3,0.3-0.6,0.7-0.8l1-0.5v-1.9l-1-0.5c-0.3-0.2-0.6-0.4-0.7-0.8 M7.7,4.5
	C7.4,4.7,7,4.7,6.6,4.6L5.6,4.3L4.3,5.6l0.3,1.1c0.1,0.3,0.1,0.7-0.1,1 M16.3,19.5c0.3-0.2,0.7-0.2,1-0.1l1.1,0.3l1.3-1.3l-0.3-1.1
	c-0.1-0.3-0.1-0.7,0.1-1 M4.5,16.3c0.2,0.3,0.2,0.7,0.1,1l-0.3,1.1l1.3,1.3l1.1-0.3c0.3-0.1,0.7-0.1,1,0.1 M19.5,7.7
	c-0.2-0.3-0.2-0.7-0.1-1l0.3-1.1l-1.3-1.3l-1.1,0.3c-0.3,0.1-0.7,0.1-1-0.1"/>
</svg>
